<svg width="26" height="26" viewBox="0 0 26 26" fill="none" xmlns="http://www.w3.org/2000/svg">
<g clip-path="url(#clip0_27_1907)">
<path d="M13.5201 11.83V15.3833H22.0134C21.7534 17.3767 21.0893 18.8359 20.0775 19.8608C18.8349 21.1033 16.9001 22.4608 13.5201 22.4608C8.29081 22.4608 4.20339 18.2433 4.20339 13.0141C4.20339 7.78483 8.29081 3.56742 13.5201 3.56742C16.3367 3.56742 18.4026 4.68 19.9193 6.11L22.4186 3.61075C20.3093 1.56 17.4775 0 13.5201 0C6.35597 0 0.332642 5.83592 0.332642 13C0.332642 20.1641 6.35597 26 13.5201 26C17.3908 26 20.3093 24.7292 22.5908 22.36C24.9308 20.02 25.6675 16.7126 25.6675 14.0541C25.6675 13.2308 25.6101 12.4648 25.4801 11.83H13.5201Z" fill="#3D3D3D"/>
</g>
<defs>
<clipPath id="clip0_27_1907">
<rect width="26" height="26" fill="white"/>
</clipPath>
</defs>
</svg>
