<svg width="20" height="20" viewBox="0 0 20 20" fill="none" xmlns="http://www.w3.org/2000/svg">
<circle cx="10" cy="10" r="10" fill="#AF4C4C"/>
<path d="M11 4.36364L10.8864 12.7273H9.56818L9.45455 4.36364H11ZM10.2273 16.0909C9.94697 16.0909 9.70644 15.9905 9.50568 15.7898C9.30492 15.589 9.20455 15.3485 9.20455 15.0682C9.20455 14.7879 9.30492 14.5473 9.50568 14.3466C9.70644 14.1458 9.94697 14.0455 10.2273 14.0455C10.5076 14.0455 10.7481 14.1458 10.9489 14.3466C11.1496 14.5473 11.25 14.7879 11.25 15.0682C11.25 15.2538 11.2027 15.4242 11.108 15.5795C11.017 15.7348 10.8939 15.8598 10.7386 15.9545C10.5871 16.0455 10.4167 16.0909 10.2273 16.0909Z" fill="white"/>
</svg>
