<svg width="20" height="20" viewBox="0 0 20 20" fill="none" xmlns="http://www.w3.org/2000/svg">
<circle cx="10" cy="10" r="10" fill="#4CAF50"/>
<path d="M9.60511 12.1364V12.0767C9.61174 11.4437 9.67803 10.9399 9.80398 10.5653C9.92992 10.1908 10.1089 9.88755 10.3409 9.65554C10.5729 9.42353 10.8513 9.20975 11.1761 9.0142C11.3717 8.89489 11.5473 8.75402 11.7031 8.59162C11.8589 8.4259 11.9815 8.23532 12.071 8.01989C12.1638 7.80445 12.2102 7.56581 12.2102 7.30398C12.2102 6.97917 12.134 6.69744 11.9815 6.45881C11.8291 6.22017 11.6252 6.03622 11.37 5.90696C11.1148 5.7777 10.8314 5.71307 10.5199 5.71307C10.2481 5.71307 9.98627 5.76941 9.73438 5.8821C9.48248 5.99479 9.27202 6.17211 9.10298 6.41406C8.93395 6.65601 8.83617 6.97254 8.80966 7.36364H7.55682C7.58333 6.80019 7.72917 6.31794 7.99432 5.9169C8.26278 5.51586 8.61577 5.20928 9.05327 4.99716C9.49408 4.78504 9.98295 4.67898 10.5199 4.67898C11.1032 4.67898 11.6103 4.79498 12.0412 5.02699C12.4754 5.259 12.8101 5.57718 13.0455 5.98153C13.2841 6.38589 13.4034 6.84659 13.4034 7.36364C13.4034 7.72822 13.3471 8.058 13.2344 8.35298C13.125 8.64796 12.9659 8.91146 12.7571 9.14347C12.5516 9.37547 12.303 9.58097 12.0114 9.75994C11.7197 9.94223 11.486 10.1345 11.3104 10.3366C11.1347 10.5355 11.0071 10.7725 10.9276 11.0476C10.848 11.3227 10.8049 11.6657 10.7983 12.0767V12.1364H9.60511ZM10.2415 15.0795C9.99621 15.0795 9.78575 14.9917 9.61009 14.8161C9.43442 14.6404 9.34659 14.4299 9.34659 14.1847C9.34659 13.9394 9.43442 13.7289 9.61009 13.5533C9.78575 13.3776 9.99621 13.2898 10.2415 13.2898C10.4867 13.2898 10.6972 13.3776 10.8729 13.5533C11.0485 13.7289 11.1364 13.9394 11.1364 14.1847C11.1364 14.3471 11.0949 14.4962 11.0121 14.6321C10.9325 14.768 10.8248 14.8774 10.6889 14.9602C10.5563 15.0398 10.4072 15.0795 10.2415 15.0795Z" fill="white"/>
</svg>
