<svg width="26" height="26" viewBox="0 0 26 26" fill="none" xmlns="http://www.w3.org/2000/svg">
<g clip-path="url(#clip0_27_1905)">
<path d="M23.9688 0H2.03125C0.90935 0 0 0.90935 0 2.03125V23.9688C0 25.0907 0.90935 26 2.03125 26H23.9688C25.0907 26 26 25.0907 26 23.9688V2.03125C26 0.90935 25.0907 0 23.9688 0ZM13 20.3125C12.3598 20.3125 11.7328 20.2678 11.124 20.1815C10.5145 20.6111 6.99324 23.0845 6.66088 23.1309C6.66088 23.1309 6.52459 23.1839 6.40868 23.1156C6.29276 23.0474 6.31378 22.8684 6.31378 22.8684C6.34866 22.6303 7.22659 19.5986 7.38844 19.0407C4.41447 17.5673 2.4375 14.958 2.4375 11.9844C2.4375 7.38487 7.16647 3.65625 13 3.65625C18.8335 3.65625 23.5625 7.38487 23.5625 11.9844C23.5625 16.5839 18.8335 20.3125 13 20.3125ZM8.7204 10.6895H7.76956V14.3096C7.76956 14.6306 7.49623 14.8916 7.16018 14.8916C6.82413 14.8916 6.55081 14.6306 6.55081 14.3096V10.6895H5.59997C5.2702 10.6895 5.00197 10.4218 5.00197 10.0928C5.00197 9.76376 5.27031 9.49607 5.59997 9.49607H8.7204C9.05017 9.49607 9.3184 9.76376 9.3184 10.0928C9.3184 10.4218 9.05006 10.6895 8.7204 10.6895ZM20.624 13.8925C20.6724 13.9562 20.7077 14.0289 20.7277 14.1064C20.7478 14.1839 20.7523 14.2646 20.741 14.3439C20.7301 14.4232 20.7036 14.4995 20.663 14.5685C20.6224 14.6375 20.5685 14.6978 20.5045 14.7458C20.3991 14.8258 20.2703 14.869 20.138 14.8688C20.0436 14.8692 19.9504 14.8475 19.8658 14.8054C19.7813 14.7634 19.7078 14.7021 19.6512 14.6265L18.2221 12.733L18.0106 12.9444V14.274C18.0104 14.4356 17.9461 14.5906 17.8319 14.7049C17.7176 14.8192 17.5627 14.8835 17.401 14.8837C17.2395 14.8836 17.0846 14.8193 16.9703 14.7051C16.8561 14.5908 16.7918 14.4359 16.7917 14.2743V10.1054C16.7917 9.76939 17.065 9.49607 17.401 9.49607C17.7371 9.49607 18.0104 9.76939 18.0104 10.1054V11.4152L19.7106 9.71501C19.798 9.62758 19.9182 9.57938 20.0486 9.57938C20.2007 9.57938 20.3535 9.64503 20.468 9.75932C20.5747 9.86592 20.6384 10.0032 20.6471 10.1456C20.656 10.2894 20.6081 10.421 20.5127 10.5167L19.1241 11.9052L20.624 13.8925ZM11.5779 10.0983C11.475 9.8059 11.1631 9.50517 10.7651 9.49628C10.3683 9.50528 10.0564 9.8059 9.95367 10.0976L8.49604 13.9343C8.31101 14.509 8.47253 14.7221 8.64045 14.7996C8.76202 14.8552 8.89417 14.8839 9.02785 14.8837C9.282 14.8837 9.47624 14.7806 9.53463 14.6149L9.83656 13.8244L11.6947 13.8245L11.9964 14.6145C12.055 14.7805 12.2494 14.8836 12.5035 14.8836C12.6372 14.8837 12.7693 14.8551 12.8909 14.7996C13.0589 14.7224 13.2204 14.5092 13.0349 13.9331L11.5779 10.0983ZM10.157 12.7452L10.7656 11.0161L11.3742 12.7452H10.157ZM16.5547 14.2441C16.5547 14.5521 16.2928 14.8027 15.9707 14.8027H14.0156C13.6936 14.8027 13.4316 14.552 13.4316 14.2441V10.1054C13.4316 9.76939 13.7107 9.49607 14.0537 9.49607C14.3966 9.49607 14.6757 9.76939 14.6757 10.1054V13.6855H15.9706C16.2928 13.6855 16.5547 13.9362 16.5547 14.2441Z" fill="#3D3D3D"/>
</g>
<defs>
<clipPath id="clip0_27_1905">
<rect width="26" height="26" fill="white"/>
</clipPath>
</defs>
</svg>
