<svg width="203" height="205" viewBox="0 0 203 205" fill="none" xmlns="http://www.w3.org/2000/svg">
<ellipse cx="101.5" cy="102.5" rx="101.5" ry="102.5" fill="#FFC217"/>
<path d="M51.3379 99.8C53.7364 95.7298 56.1349 91.6596 59.7327 86.3284C63.3305 80.9972 68.0549 74.5285 70.8884 70.8327C75.3503 65.013 76.8848 64.4895 77.4332 63.9399C77.7296 63.6429 78.1997 63.4631 78.7877 64.1866C79.3758 64.9101 80.1026 66.5818 81.2039 68.5696C82.3051 70.5574 83.7588 72.8105 85.3798 75.7156C87.0009 78.6207 88.7452 82.1095 89.8619 84.5246C90.9786 86.9396 91.4147 88.1752 92.0754 89.6839C93.5181 92.978 95.0885 96.406 96.1512 99.1932C96.8034 100.904 97.4429 101.56 97.7348 101.708C99.0826 102.395 99.6432 100.025 104.571 93.4194C107.185 89.9156 110.731 83.986 112.858 80.7362C114.986 77.4864 115.422 76.9777 117.391 74.4261C119.36 71.8745 122.849 67.2954 124.791 64.7912C126.734 62.287 127.025 61.9962 127.284 61.7738C127.542 61.5513 127.76 61.4059 128.491 63.6206C129.221 65.8352 130.456 70.4142 132.292 76.1165C134.128 81.8188 136.526 88.5056 138.198 94.0944C139.87 99.6833 140.742 103.972 141.228 106.726C142.149 111.951 142.081 113.301 142.3 114.625C142.434 115.431 142.522 116.314 142.304 117.084C142.195 117.468 141.649 117.636 138.009 118.293C134.368 118.951 127.536 120.041 118.093 120.603C108.649 121.164 96.802 121.164 89.4269 120.983C82.0518 120.801 79.5079 120.438 75.5082 120.25C71.5084 120.063 66.1299 120.063 63.9406 121.081C61.7513 122.098 62.9143 124.133 66.2389 127.907C69.5636 131.681 75.0148 137.132 78.1501 140.195C81.875 143.834 82.8315 144.509 83.3436 145.093C85.3593 147.395 88.3312 150.154 89.9126 151.372C91.698 152.747 93.0357 154.198 95.6336 156.542C96.6877 157.493 97.5883 157.578 98.0277 157.725C99.8761 158.341 104.035 155.528 107.745 152.929C109.487 151.709 111.087 149.66 113.104 147.792C116.006 145.102 118.431 142.683 119.795 141.504C120.251 141.111 121.151 140.405 123.305 138.18C127.325 134.026 129.745 130.93 130.184 130.601C131.357 129.466 132.608 128.287 133.048 127.922C133.269 127.701 133.487 127.411 134.152 126.891" stroke="#505050" stroke-width="14" stroke-linecap="round"/>
<path d="M161.259 114.68C160.986 116.136 160.713 117.592 160.072 119.479C159.431 121.367 158.43 123.641 157.398 125.985" stroke="#505050" stroke-width="9" stroke-linecap="round"/>
<path d="M174.768 114.405C174.313 115.952 173.858 117.498 173.078 119.524C172.297 121.549 171.205 124.005 169.805 126.812" stroke="#505050" stroke-width="9" stroke-linecap="round"/>
<path d="M34.4246 112.75L28.9102 121.298" stroke="#505050" stroke-width="9" stroke-linecap="round"/>
<path d="M44.9031 114.68C43.9932 116.227 43.0833 117.774 42.4326 118.935C41.7819 120.096 41.418 120.824 41.043 121.574" stroke="#505050" stroke-width="9" stroke-linecap="round"/>
</svg>
